<svg xmlns="http://www.w3.org/2000/svg" xmlns:xlink="http://www.w3.org/1999/xlink" width="82.862" height="49.032" viewBox="0 0 82.862 49.032">
  <defs>
    <linearGradient id="linear-gradient" x1="0.5" x2="0.5" y2="1" gradientUnits="objectBoundingBox">
      <stop offset="0" stop-color="#054b2a"/>
      <stop offset="1" stop-color="#1d8252"/>
    </linearGradient>
    <linearGradient id="linear-gradient-2" x1="0.077" y1="0.111" x2="1" y2="0.845" gradientUnits="objectBoundingBox">
      <stop offset="0" stop-color="#d9aa43"/>
      <stop offset="1" stop-color="#e8c578"/>
    </linearGradient>
  </defs>
  <g id="_000000ff" data-name="#000000ff" transform="translate(0 -103.999)">
    <path id="Path_13634" data-name="Path 13634" d="M7.772,106.408a2.444,2.444,0,0,1,2.416-2.4q22.013-.01,44.028,0,0,6.8,0,13.6a4.378,4.378,0,0,0,.246,2.01,2.476,2.476,0,0,0,2.343,1.384q8.659,0,17.32,0a9.334,9.334,0,0,1,6.52,2.216,7.02,7.02,0,0,1,2.217,4.849V143.4a2.482,2.482,0,0,1-2.253,2.178c-1.468.036-2.936,0-4.4.015a9.416,9.416,0,0,1-3.588,5.613,9.316,9.316,0,0,1-14.658-5.613q-12.32,0-24.642,0a9.315,9.315,0,0,1-18.246,0c-1.685-.015-3.371.021-5.056-.015a2.439,2.439,0,0,1-2.245-2.4c-.01-2.432,0-4.867,0-7.3-1.838-.013-3.679.019-5.515-.015A2.513,2.513,0,0,1,0,133.789v-.634a2.5,2.5,0,0,1,2.411-2.125c7.292-.011,14.583,0,21.876-.006a2.424,2.424,0,1,0-.006-4.849c-7.289-.011-14.578,0-21.868-.006A2.513,2.513,0,0,1,0,124.077v-.631a2.5,2.5,0,0,1,2.4-2.127c4.863-.01,9.728,0,14.591,0a2.471,2.471,0,0,0,1.984-.921,2.524,2.524,0,0,0,.107-2.958,2.526,2.526,0,0,0-2.094-.814c-4.051,0-8.1.006-12.151,0a2.423,2.423,0,0,1-.163-4.839c1.029-.036,2.059,0,3.09-.013,0-1.787-.008-3.573,0-5.36M23.217,139.4a4.444,4.444,0,0,0-3.454,4.743,4.449,4.449,0,1,0,8.815-1.162,4.442,4.442,0,0,0-5.362-3.581m42.894,0a4.443,4.443,0,0,0-3.458,4.755,4.448,4.448,0,1,0,8.812-1.172A4.439,4.439,0,0,0,66.111,139.4Z" fill="url(#linear-gradient)"/>
    <path id="Path_13635" data-name="Path 13635" d="M365,107.01a17.1,17.1,0,0,1,6.563,2.963c2.979,2.259,4.915,5.535,6.812,8.686q-6.688,0-13.376,0Q365,112.835,365,107.01Z" transform="translate(-305.927 -2.524)" fill="url(#linear-gradient-2)"/>
  </g>
</svg>
