<svg id="_134201_traffic_cars_transportation_ground_icon" data-name="134201_traffic_cars_transportation_ground_icon" xmlns="http://www.w3.org/2000/svg" width="20.057" height="12.3" viewBox="0 0 20.057 12.3">
  <path id="path2162" d="M4.082,92.875a.273.273,0,0,0-.294.308v.511H2.681a1.049,1.049,0,0,0-1.056.692L.85,96.345A1.069,1.069,0,0,0,0,97.4V99.9H.753v.8a.708.708,0,1,0,1.415,0v-.8H7.26v.8a.708.708,0,1,0,1.415,0v-.8h.753V97.4a1.07,1.07,0,0,0-.851-1.06L7.8,94.386a1.05,1.05,0,0,0-1.058-.692H5.651v-.511a.272.272,0,0,0-.293-.308H4.082Zm-1.41,1.532H6.755c.255,0,.364.159.437.376L7.775,96.3H1.651l.584-1.515C2.308,94.567,2.418,94.41,2.673,94.407ZM1.484,97.053a.66.66,0,1,1-.654.66A.656.656,0,0,1,1.484,97.053Zm6.461,0a.66.66,0,1,1-.654.66A.656.656,0,0,1,7.944,97.053Z" transform="translate(0 -89.151)" fill="#acabab"/>
  <path id="path2174" fill="#acabab"/>
  <path id="path2180" fill="#acabab"/>
  <path id="path2184" d="M251.109,0h0Zm.05,0A11.328,11.328,0,0,0,247.8.6c-.66.271-1.1.542-1.239,1.219l-.495,3.755v5.175h.853v.812a.735.735,0,1,0,1.47,0v-.812h5.545v.812a.736.736,0,1,0,1.471,0v-.812h.852V5.571l-.495-3.755c-.138-.677-.578-.948-1.238-1.219A11.336,11.336,0,0,0,251.159,0Zm-2.1.947h4.193a.3.3,0,1,1,0,.609h-4.193A.3.3,0,1,1,249.063.949ZM247.95,2.174h6.418c.436,0,.55.218.6.549l.386,2.724c.036.261-.041.52-.407.52h-7.581c-.366,0-.443-.259-.407-.52l.386-2.724C247.4,2.392,247.514,2.174,247.95,2.174Zm-.3,5.561a.694.694,0,1,1-.705.694A.7.7,0,0,1,247.652,7.735Zm7.014,0a.694.694,0,1,1-.705.694A.7.7,0,0,1,254.666,7.735Z" transform="translate(-236.197)" fill="#acabab"/>
  <path id="path2194" fill="#acabab"/>
  <path id="path2200" fill="#acabab"/>
</svg>
