<svg xmlns="http://www.w3.org/2000/svg" width="14.66" height="14.662" viewBox="0 0 14.66 14.662">
  <path id="_211830_telephone_icon_3_" data-name="211830_telephone_icon (3)" d="M93.92,90.737a6.531,6.531,0,0,0-3.469-1.795,1.232,1.232,0,0,0-.679.179,3.727,3.727,0,0,1-1.208.629c-.117,0-.242-.1-.516-.342L88,89.367a14.452,14.452,0,0,1-1.22-1.141l-.075-.079c-.054-.054-.1-.1-.146-.15-.258-.267-.446-.458-1.108-1.208l-.029-.033c-.317-.358-.525-.591-.537-.762s.133-.437.5-.941a2.059,2.059,0,0,0,.054-2.228A10.136,10.136,0,0,0,84.1,80.9l-.042-.05a1.8,1.8,0,0,0-1.412-.75,2.5,2.5,0,0,0-1.333.483c-.021.012-.042.029-.062.042A2.673,2.673,0,0,0,80.1,82.007c-.237.77-.4,1.77.741,3.848a18.6,18.6,0,0,0,3.29,4.46,19.878,19.878,0,0,0,3.248,2.765,7.551,7.551,0,0,0,3.882,1.678,2.832,2.832,0,0,0,2.678-1.245C95.019,92.207,94.569,91.407,93.92,90.737Z" transform="translate(-80.1 94.589) rotate(-90)" fill="#b4b0b0"/>
</svg>
