<svg xmlns="http://www.w3.org/2000/svg" width="17.335" height="13.001" viewBox="0 0 17.335 13.001">
  <path id="_8541772_car_transport_icon" data-name="8541772_car_transport_icon" d="M16.932,67.792H14.905l-.563-1.408A3.773,3.773,0,0,0,10.821,64h-4.3A3.774,3.774,0,0,0,3,66.384l-.563,1.408H.41a.406.406,0,0,0-.394.5l.2.813a.406.406,0,0,0,.394.308h.68a2.152,2.152,0,0,0-.748,1.625v1.625a2.149,2.149,0,0,0,.542,1.42v1.831A1.084,1.084,0,0,0,2.17,77H3.254a1.084,1.084,0,0,0,1.083-1.083V74.835H13v1.083A1.084,1.084,0,0,0,14.088,77h1.083a1.084,1.084,0,0,0,1.083-1.083V74.087a2.148,2.148,0,0,0,.542-1.42V71.042a2.153,2.153,0,0,0-.747-1.625h.68a.406.406,0,0,0,.394-.308l.2-.813A.407.407,0,0,0,16.932,67.792Zm-11.92-.6a1.625,1.625,0,0,1,1.509-1.021h4.3a1.625,1.625,0,0,1,1.509,1.021L13,68.876H4.337ZM3.254,72.661a1.08,1.08,0,1,1,0-2.16,2.084,2.084,0,0,1,1.625,1.62C4.879,72.769,3.9,72.661,3.254,72.661Zm10.835,0c-.65,0-1.625.108-1.625-.54a2.084,2.084,0,0,1,1.625-1.62,1.08,1.08,0,1,1,0,2.16Z" transform="translate(-0.004 -64)" fill="#acabab"/>
</svg>
