<svg xmlns="http://www.w3.org/2000/svg" width="14.68" height="16.777" viewBox="0 0 14.68 16.777">
  <path id="_8541611_calendar_schedule_event_date_icon" data-name="8541611_calendar_schedule_event_date_icon" d="M0,15.2a1.573,1.573,0,0,0,1.573,1.573H13.107A1.573,1.573,0,0,0,14.68,15.2V6.291H0ZM10.485,8.782a.394.394,0,0,1,.393-.393h1.311a.394.394,0,0,1,.393.393v1.311a.394.394,0,0,1-.393.393H10.879a.394.394,0,0,1-.393-.393Zm0,4.194a.394.394,0,0,1,.393-.393h1.311a.394.394,0,0,1,.393.393v1.311a.394.394,0,0,1-.393.393H10.879a.394.394,0,0,1-.393-.393ZM6.291,8.782a.394.394,0,0,1,.393-.393H8a.394.394,0,0,1,.393.393v1.311A.394.394,0,0,1,8,10.485H6.685a.394.394,0,0,1-.393-.393Zm0,4.194a.394.394,0,0,1,.393-.393H8a.394.394,0,0,1,.393.393v1.311A.394.394,0,0,1,8,14.68H6.685a.394.394,0,0,1-.393-.393ZM2.1,8.782a.394.394,0,0,1,.393-.393H3.8a.394.394,0,0,1,.393.393v1.311a.394.394,0,0,1-.393.393H2.49a.394.394,0,0,1-.393-.393Zm0,4.194a.394.394,0,0,1,.393-.393H3.8a.394.394,0,0,1,.393.393v1.311a.394.394,0,0,1-.393.393H2.49a.394.394,0,0,1-.393-.393ZM13.107,2.1H11.534V.524A.526.526,0,0,0,11.01,0H9.961a.526.526,0,0,0-.524.524V2.1H5.243V.524A.526.526,0,0,0,4.718,0H3.67a.526.526,0,0,0-.524.524V2.1H1.573A1.573,1.573,0,0,0,0,3.67V5.243H14.68V3.67A1.573,1.573,0,0,0,13.107,2.1Z" fill="#acabab"/>
</svg>
