<svg id="Group_1749" data-name="Group 1749" xmlns="http://www.w3.org/2000/svg" xmlns:xlink="http://www.w3.org/1999/xlink" width="95.677" height="98.119" viewBox="0 0 95.677 98.119">
  <defs>
    <clipPath id="clip-path">
      <rect id="Rectangle_3233" data-name="Rectangle 3233" width="95.677" height="98.118" fill="none"/>
    </clipPath>
  </defs>
  <g id="Group_1748" data-name="Group 1748" clip-path="url(#clip-path)">
    <path id="Path_12948" data-name="Path 12948" d="M15,116.789c-4.667-.009-9.336-.04-14,0-.836.006-1-.25-1-1.031Q.033,83.783,0,51.811C0,51,.218,50.8,1.018,50.8q21.263.037,42.526,0c.826,0,1.013.233,1.005,1.024-.039,4.05-.018,8.1-.018,12.15l-6.575.044c-1.993-.017-1.628-.159-1.667,1.663a6.867,6.867,0,0,1-.005.711c-.09.705.193,1.009.909.918a5.761,5.761,0,0,1,.71-.007l.069,1.65-.069,3.3c-1.886.012-1.608-.2-1.608,1.646s-.278,1.633,1.608,1.645V80.5c-1.886.012-1.608-.2-1.608,1.645s-.278,1.633,1.608,1.646V88.74c-1.887.012-1.608-.2-1.608,1.646s-.279,1.633,1.608,1.645v4.952c-1.887.012-1.608-.2-1.608,1.645s-.279,1.634,1.608,1.645l.053,4.94c-2.346.1-4.7-.187-7.042.2-.268-.315-.634-.185-.958-.189-1.911-.026-1.911-.02-1.91,1.851-1.93,2.589-4.1,4.982-6.144,7.477a1.7,1.7,0,0,1-.8.624,62.122,62.122,0,0,1-6.1,1.609M5.767,67.3a10.228,10.228,0,0,0,1.845-.019c1.345-.251.452-1.326.608-2,.1-.42.424-1.268-.612-1.273-1.232-.006-2.464.007-3.7,0-.447,0-.562.212-.6.626-.261,2.674-.27,2.673,2.356,2.673.034,0,.069,0,.1,0m8.324-3.3c-2.71,0-2.694,0-2.544,2.592.031.533.208.722.732.712,1.163-.023,2.327-.021,3.491,0,.507.009.713-.147.747-.7.163-2.609.18-2.607-2.427-2.607m8.13,3.3c2.71,0,2.694,0,2.539-2.6-.032-.538-.218-.717-.737-.707q-1.745.034-3.491,0c-.513-.01-.709.159-.743.7-.161,2.6-.177,2.6,2.432,2.6m8.28-3.3c-2.612,0-2.6,0-2.466,2.564.026.5.148.752.7.74,1.2-.027,2.4-.02,3.594,0,.483.007.632-.193.67-.667.207-2.635.219-2.634-2.4-2.634Zm-.047,28.027c2.711,0,2.7,0,2.548-2.587-.03-.528-.2-.728-.727-.717-1.163.024-2.328.021-3.491,0-.5-.009-.716.14-.752.692-.17,2.612-.187,2.611,2.422,2.611M14,59.06c.616,0,1.233-.007,1.849,0,.96.015.731-.758.621-1.17-.189-.708.754-1.883-.613-2.089a28.425,28.425,0,0,0-3.589-.045c-.537-.011-.691.2-.72.723C11.4,59.063,11.391,59.062,14,59.06m.03,24.731c2.617,0,2.617,0,2.475-2.544a.8.8,0,0,1,0-.1c.041-.491-.2-.661-.672-.654-1.2.017-2.4.01-3.594,0-.383,0-.618.073-.686.541-.363,2.493-.158,2.757,2.273,2.757Zm-.048,8.243c2.711,0,2.694,0,2.536-2.6-.033-.541-.225-.713-.74-.7q-1.745.033-3.491,0c-.516-.01-.706.165-.739.7-.157,2.6-.173,2.6,2.435,2.6m-8.2-8.243c2.617,0,2.617,0,2.476-2.544a.8.8,0,0,1,0-.1c.041-.491-.2-.661-.672-.654-1.2.017-2.4.01-3.594,0-.383,0-.618.073-.686.541-.363,2.493-.158,2.757,2.272,2.757ZM30.5,59.062c2.62,0,2.62,0,2.489-2.531a.71.71,0,0,1,0-.1c.04-.48-.175-.675-.659-.668-1.232.017-2.464.009-3.7,0-.366,0-.533.134-.595.526-.385,2.458-.14,2.77,2.256,2.77ZM14.089,96.98c-2.71,0-2.694,0-2.542,2.594.031.535.212.72.734.71q1.744-.035,3.491,0c.51.009.711-.153.746-.7.164-2.606.18-2.6-2.428-2.6m8.245,0c-2.71,0-2.695,0-2.544,2.592.031.533.208.722.732.712,1.163-.023,2.328-.021,3.491,0,.507.009.713-.147.747-.7.163-2.609.18-2.607-2.426-2.607m8.212,3.3c2.61,0,2.61,0,2.444-2.575a.851.851,0,0,1,0-.1c.027-.426-.157-.626-.6-.622-1.232.012-2.464.009-3.7,0-.4,0-.6.122-.657.573-.323,2.572-.2,2.726,2.3,2.726ZM5.833,88.737c-2.71,0-2.693,0-2.529,2.607.034.548.24.705.747.7,1.163-.021,2.327-.023,3.491,0,.524.011.7-.178.732-.712.151-2.593.167-2.592-2.441-2.592m24.695-4.946c2.614,0,2.614,0,2.463-2.556a.752.752,0,0,1,0-.1c.041-.5-.222-.648-.684-.642q-1.8.024-3.594,0c-.478-.007-.637.182-.676.66-.215,2.642-.227,2.641,2.39,2.641Zm-8.306,0c2.71,0,2.694,0,2.539-2.6-.032-.538-.218-.717-.737-.707q-1.745.034-3.491,0c-.513-.01-.709.159-.743.7-.161,2.6-.177,2.6,2.432,2.6m.048,8.243c2.617,0,2.617,0,2.478-2.542a.711.711,0,0,1,0-.1c.04-.489-.2-.663-.67-.657-1.2.017-2.4.009-3.594,0-.381,0-.619.069-.689.539-.366,2.487-.154,2.759,2.27,2.759Zm8.194-16.486c2.71,0,2.694,0,2.539-2.6-.032-.538-.218-.717-.737-.707q-1.745.034-3.491,0c-.513-.01-.709.159-.743.7-.161,2.6-.177,2.6,2.431,2.6m-16.4,32.972c2.607,0,2.607,0,2.442-2.578a.852.852,0,0,1,0-.1c.027-.428-.158-.623-.6-.619-1.233.012-2.465.01-3.7,0-.405,0-.6.124-.656.574-.321,2.576-.207,2.724,2.307,2.724Zm8.142,0c2.712,0,2.712,0,2.543-2.579a.752.752,0,0,1,0-.1c.027-.43-.165-.622-.6-.618-1.232.012-2.465.01-3.7,0-.407,0-.6.129-.652.577-.317,2.584-.212,2.722,2.308,2.722Zm.1-32.972c2.609,0,2.609,0,2.438-2.581a.8.8,0,0,1,0-.1c.028-.431-.168-.619-.606-.616-1.232.012-2.464.01-3.7,0-.408,0-.6.131-.651.579-.315,2.588-.215,2.72,2.31,2.72Zm-8.218-3.3c-2.71,0-2.694,0-2.544,2.592.031.533.208.723.732.712,1.163-.023,2.327-.021,3.491,0,.507.009.713-.147.747-.7.163-2.609.18-2.608-2.427-2.608M5.819,96.982c-.616,0-1.233.006-1.848,0-.961-.012-.727.763-.618,1.173.189.707-.755,1.883.615,2.086a28.791,28.791,0,0,0,3.588.045c.54.012.688-.209.717-.727.142-2.578.156-2.577-2.454-2.576M5.757,59.06c.616,0,1.232-.007,1.849,0,.961.014.73-.76.62-1.17-.189-.708.754-1.883-.613-2.089a28.413,28.413,0,0,0-3.588-.045c-.538-.012-.69.2-.719.724-.143,2.581-.157,2.58,2.452,2.578m.06,16.488c2.61,0,2.61,0,2.444-2.575a.912.912,0,0,1,0-.1c.027-.426-.157-.625-.6-.621-1.232.011-2.464.009-3.7,0-.4,0-.6.122-.657.573-.323,2.572-.2,2.726,2.3,2.726Zm16.5-19.784c-2.711,0-2.694,0-2.532,2.6.034.545.234.709.745.7q1.745-.032,3.491,0c.521.01.7-.173.735-.709.153-2.6.169-2.594-2.439-2.594m16.456,3.3c2.612,0,2.6,0,2.466-2.564-.026-.5-.148-.752-.7-.74-1.2.027-2.4.02-3.594,0-.483-.007-.632.194-.67.667-.207,2.635-.219,2.634,2.4,2.634ZM5.74,108.52c2.711,0,2.695,0,2.534-2.6-.034-.543-.23-.711-.743-.7q-1.745.033-3.491,0c-.519-.01-.7.17-.737.707-.155,2.6-.171,2.6,2.436,2.6" transform="translate(0 -36.814)" fill="#656b76"/>
    <path id="Path_12949" data-name="Path 12949" d="M137.675,128.284v-8.243q.034-1.65.068-3.3l34.61.014q-.008,7.4-.016,14.8c0,1.269.061,2.542-.028,3.8-.07.986.3,1.184,1.216,1.18,6.753-.031,13.507-.01,20.261-.005-.008,8.952-.03,17.9,0,26.856,0,.927-.212,1.249-1.169,1.177-1.262-.1-2.535-.043-3.8-.055q0-9.055-.007-18.11c0-1.366-.013-2.732.021-4.1.014-.59-.131-.877-.792-.851-1.125.044-2.255.044-3.38,0-.661-.026-.807.26-.792.851.034,1.365.017,2.732.021,4.1q0,9.055-.007,18.11h-3.307q0-9.055-.007-18.11c0-1.366-.012-2.732.021-4.1.015-.59-.131-.877-.792-.851-1.125.044-2.254.044-3.38,0-.662-.026-.807.26-.792.851.034,1.365.017,2.732.021,4.1q0,9.055-.007,18.11h-3.307q0-9.055-.007-18.11c0-1.366-.013-2.732.021-4.1.015-.59-.13-.877-.792-.851-1.125.044-2.255.044-3.38,0-.661-.026-.807.26-.792.851.034,1.365.017,2.732.021,4.1q-.006,8.721-.012,17.442a24.119,24.119,0,0,1-3.31-.7q0-8.371,0-16.742c0-1.366-.012-2.732.021-4.1.015-.59-.131-.877-.792-.851-1.125.044-2.254.044-3.38,0-.662-.026-.807.26-.792.851.034,1.365.017,2.732.021,4.1q-.019,5.7-.037,11.394c-1.156-1.389-1.865-3.155-3.492-4.148.29-.225.217-.549.217-.845q0-3.2-.01-6.4c0-1.366-.012-2.732.021-4.1.015-.59-.13-.877-.792-.851-1.125.044-2.255.044-3.38,0-.662-.026-.807.26-.792.851.034,1.365.017,2.732.021,4.1l-.011,6.57h-3.3l-.011-6.57c0-1.366-.012-2.732.021-4.1.015-.59-.131-.877-.792-.851-1.125.044-2.254.044-3.38,0-.662-.026-.807.26-.792.851.034,1.365.017,2.732.021,4.1l-.011,6.57-4.929.025q-.026-2.47-.053-4.94V128.284Zm27.218-.828v0h1.128c.317,0,.529-.118.529-.471,0-.512.029-1.027-.008-1.537-.048-.654-.6-.5-.944-.44-.775.129-1.886-.542-2.276.423-.578,1.429-.038,2.029,1.468,2.029Zm-19.785,1.649v.007h-1.128c-.273,0-.478.1-.485.4-.012.546-.028,1.094,0,1.639.029.515.465.463.775.41.825-.14,1.955.506,2.432-.374.665-1.227-.016-2.085-1.393-2.086h-.205m9.922,2.473v-.007c.376,0,.752,0,1.127,0,.211,0,.454-.04.466-.294.029-.612.243-1.37-.033-1.808-.507-.809-1.484-.233-2.25-.344-.321-.047-.766-.188-.95.332-.464,1.316.075,2.123,1.434,2.123h.205m4.932,0v-.006h1.128c.326,0,.518-.138.516-.485a10.41,10.41,0,0,0-.018-1.535c-.114-.74-.776-.485-1.153-.417-.7.126-1.724-.577-2.071.421-.517,1.487-.039,2.021,1.5,2.022h.1m4.894,0h1.128c.3,0,.556-.072.562-.436a9.01,9.01,0,0,0-.018-1.636c-.113-.667-.734-.425-1.1-.371-.718.107-1.728-.516-2.114.378-.583,1.348,0,2.068,1.437,2.068.034,0,.069,0,.1,0M145.11,135.7v0h1.128c.317,0,.529-.118.53-.471,0-.513.029-1.027-.008-1.537-.048-.654-.6-.5-.944-.44-.775.129-1.886-.542-2.276.423-.578,1.43-.038,2.029,1.468,2.03Zm4.918,0v0h1.128c.3,0,.55-.083.554-.445.006-.546.186-1.193-.042-1.619-.466-.87-1.4-.275-2.116-.38-.362-.054-.923-.285-1.113.37-.419,1.441.035,2.077,1.486,2.077h.1m4.944,0H156.1c.3,0,.551-.081.556-.443.007-.546.186-1.192-.041-1.619-.465-.873-1.4-.275-2.115-.382-.363-.054-.923-.285-1.115.368-.421,1.435.037,2.078,1.484,2.079.034,0,.068,0,.1,0m4.9,0v-.006c.41,0,.82,0,1.23,0a.459.459,0,0,0,.5-.394c.4-1.461-.035-2.071-1.5-2.072H160c-1.824,0-1.8,0-1.7,1.788.031.551.249.723.751.688.272-.019.546,0,.82,0m5.068,0v-.008c.376,0,.752,0,1.128,0,.277,0,.468-.119.473-.415a15.067,15.067,0,0,0-.008-1.639c-.053-.58-.568-.45-.884-.392-.788.147-1.876-.544-2.329.375-.629,1.279.015,2.079,1.414,2.079h.205m-14.8-6.592h-1.128c-.294,0-.5.063-.589.417-.375,1.5.021,2.053,1.522,2.054h.205c1.652,0,1.629,0,1.579-1.7-.017-.566-.185-.828-.769-.774-.271.025-.546,0-.82.006m-.024-4.121h-1.128c-.3,0-.551.081-.556.443-.007.546-.186,1.192.041,1.619.465.873,1.4.275,2.115.382.362.054.923.285,1.115-.368.421-1.435-.037-2.078-1.484-2.078-.034,0-.069,0-.1,0m-5.011-4.124c-1.771,0-1.813.047-1.63,1.844.024.233-.021.564.285.576.918.034,1.839.014,2.759-.01.08,0,.186-.181.227-.3.474-1.328-.063-2.113-1.436-2.113h-.205m4.933,2.473v0h1.128c.311,0,.538-.1.541-.459,0-.512.016-1.026,0-1.537-.021-.589-.5-.524-.833-.456-.809.166-1.961-.564-2.387.417-.6,1.391-.031,2.039,1.452,2.039h.1m4.929,0H156.1c.3,0,.551-.081.556-.443.007-.546.186-1.192-.041-1.619-.465-.873-1.4-.275-2.115-.382-.363-.054-.923-.285-1.115.368-.421,1.435.037,2.078,1.484,2.078.034,0,.068,0,.1,0m4.9,0v-.006c.41,0,.82,0,1.23,0a.459.459,0,0,0,.5-.394c.4-1.461-.035-2.071-1.5-2.072H160c-1.824,0-1.8,0-1.7,1.788.031.551.249.723.751.688.272-.019.546,0,.82,0m5.009,0v0h1.128c.312,0,.536-.105.538-.462,0-.512.016-1.026,0-1.537-.023-.589-.507-.521-.835-.453-.808.167-1.961-.566-2.385.419-.6,1.4-.033,2.036,1.455,2.036h.1m-19.733,1.649v0h-1.128c-.314,0-.533.11-.535.466,0,.513-.028,1.027.006,1.537.043.656.6.5.939.446.776-.129,1.886.54,2.281-.418.584-1.415.033-2.035-1.462-2.035Zm9.809,2.47h1.128c.3,0,.559-.066.566-.432a10.979,10.979,0,0,0-.014-1.638c-.083-.625-.657-.435-.993-.378-.752.129-1.8-.542-2.218.379-.6,1.327.006,2.071,1.43,2.071.034,0,.068,0,.1,0m5.053-2.468h-1.128c-.3,0-.551.081-.556.443-.007.546-.186,1.192.041,1.619.465.873,1.4.275,2.115.382.362.054.923.285,1.115-.368.421-1.435-.037-2.078-1.485-2.078-.034,0-.068,0-.1,0" transform="translate(-99.772 -84.601)" fill="#0d683d"/>
    <path id="Path_12950" data-name="Path 12950" d="M93.833,258.532a24.127,24.127,0,0,0,3.31.7,32.717,32.717,0,0,0,3.9.737c2.223.614,4.506.943,6.761,1.405.612.126,1.048.291.849,1.034h-5.234c-1.328,0-1.268,0-1.348,1.363-.053.893.236,1.219,1.119,1.4,1.838.366,3.645.89,5.464,1.348.011,1.369-.009,2.74.047,4.108.027.667-.172.879-.855.868-2.466-.037-4.933-.012-7.4-.01-.066-.194-.148-.383-.2-.581a5.75,5.75,0,0,0-8.985-3.265A6.315,6.315,0,0,0,88.9,271.48H62.525c-.066-.194-.148-.383-.2-.581a5.75,5.75,0,0,0-8.985-3.265,6.314,6.314,0,0,0-2.365,3.846c-3.148,0-6.3-.013-9.444,0-.617,0-.93-.021-.719-.824.5-1.913.89-3.857,1.323-5.788,1.025,0,2.051.009,3.076.009,2.577,0,2.554,0,2.487-2.593-.016-.62-.247-.726-.786-.714-1.366.029-2.734.008-4.1.008-.091-1.246.969-1.271,1.721-1.621a62.059,62.059,0,0,0,6.1-1.61,1.7,1.7,0,0,0,.8-.624c2.045-2.495,4.214-4.887,6.144-7.476a6.286,6.286,0,0,1,2.868-1.662c2.338-.391,4.7-.1,7.042-.2l4.929-.025h8.243c1.6.059,3.229-.1,4.725.677,1.627.993,2.336,2.759,3.492,4.148.843,1.305,1.742,2.579,2.51,3.927a2.483,2.483,0,0,0,2.448,1.42M54.4,259.795c.115.07.167.129.22.129,5.148.006,10.3,0,15.444.02.647,0,.714-.323.711-.836-.014-2.2-.032-4.393.009-6.589.013-.728-.3-.844-.926-.837-2.265.026-4.534.089-6.794-.018a3.552,3.552,0,0,0-3.469,1.562c-1.619,2.265-3.446,4.38-5.194,6.569m34.482.139-4.531-7.547c-.233-.388-.46-.711-1.018-.706-2.844.026-5.69.019-8.535.006-.511,0-.744.15-.739.7.02,2.3.016,4.593,0,6.889,0,.486.192.663.671.662,4.658-.009,9.316-.005,14.149-.005M55.928,262.4c-.668.054-1.632-.216-1.6.873.028.991.942.776,1.592.773.679,0,1.637.225,1.608-.859-.027-.994-.945-.74-1.6-.787m19.825.007c-.238,0-.477,0-.716,0-.554.006-.954.251-.948.831s.414.814.966.815c.307,0,.613,0,.92,0,.635.012,1.355.027,1.347-.834s-.735-.828-1.365-.816l-.2,0" transform="translate(-29.531 -179.985)" fill="#efc75c"/>
    <path id="Path_12952" data-name="Path 12952" d="M172.353,103.646l-34.61-.015-.069-1.65q.027-1.642.053-3.285l6.576-.044q8.431.017,16.861.033c3.976.005,7.952.02,11.928-.017.727-.007.948.187.9.91a18.235,18.235,0,0,0,.006,2.979c.1.957-.274,1.218-1.134,1.079a2.809,2.809,0,0,0-.513.009" transform="translate(-99.771 -71.492)" fill="#167b4b"/>
    <path id="Path_12953" data-name="Path 12953" d="M284.931,175.532c-6.754,0-13.507-.026-20.261.005-.913,0-1.286-.194-1.216-1.18.09-1.262.026-2.535.028-3.8,7.329.006,14.658.032,21.987-.006.921,0,1.185.233,1.1,1.127a14.133,14.133,0,0,0,0,2.77c.1.959-.277,1.214-1.134,1.078a2.832,2.832,0,0,0-.513.009" transform="translate(-190.917 -123.595)" fill="#167b4b"/>
    <path id="Path_12954" data-name="Path 12954" d="M310.419,224.5q0,9.055.007,18.111H305.49q0-9.055.007-18.111Z" transform="translate(-221.387 -162.691)" fill="#167b4b"/>
    <path id="Path_12955" data-name="Path 12955" d="M280.477,224.5q0,9.055.007,18.111h-4.936q0-9.055.007-18.111Z" transform="translate(-199.688 -162.691)" fill="#167b4b"/>
    <path id="Path_12956" data-name="Path 12956" d="M249.485,242.676a32.691,32.691,0,0,1-3.9-.737q.006-8.721.012-17.442h4.922q0,9.055.007,18.111l-1.044.069" transform="translate(-177.976 -162.691)" fill="#167b4b"/>
    <path id="Path_12957" data-name="Path 12957" d="M215.633,319.277A6.313,6.313,0,0,1,218,315.431a5.75,5.75,0,0,1,8.984,3.265c.05.2.131.387.2.581a5.892,5.892,0,0,1-2.328,5.426,5.46,5.46,0,0,1-6.017.535,5.581,5.581,0,0,1-3.2-5.138c-.009-.274,0-.548-.006-.822m5.857-1.652a2.473,2.473,0,1,0,2.388,2.579,2.592,2.592,0,0,0-2.388-2.579" transform="translate(-156.268 -227.782)" fill="#656b76"/>
    <path id="Path_12958" data-name="Path 12958" d="M77.9,319.277a6.315,6.315,0,0,1,2.365-3.846,5.75,5.75,0,0,1,8.985,3.265c.05.2.131.387.2.581a5.892,5.892,0,0,1-2.328,5.426,5.46,5.46,0,0,1-6.017.535,5.582,5.582,0,0,1-3.2-5.138c-.009-.274,0-.548-.006-.822m8.245.785a2.471,2.471,0,1,0-2.463,2.5,2.584,2.584,0,0,0,2.463-2.5" transform="translate(-56.455 -227.782)" fill="#656b76"/>
    <path id="Path_12964" data-name="Path 12964" d="M270.041,303.492c-1.819-.459-3.626-.982-5.464-1.348-.883-.176-1.171-.5-1.119-1.4.081-1.359.02-1.363,1.348-1.363h5.234v4.106" transform="translate(-190.923 -216.963)" fill="#cfd7d9"/>
    <path id="Path_12967" data-name="Path 12967" d="M46.471,296.361c1.367,0,2.735.021,4.1-.008.539-.011.77.094.786.714.067,2.594.091,2.594-2.487,2.593-1.025,0-2.051-.006-3.076-.009l.676-3.29" transform="translate(-33.187 -214.764)" fill="#cfd7d9"/>
    <path id="Path_12972" data-name="Path 12972" d="M14.183,102.069h-.1c-2.626,0-2.617,0-2.356-2.673.04-.414.156-.63.6-.626,1.232.011,2.464,0,3.7,0,1.035,0,.709.853.612,1.273-.156.675.737,1.75-.608,2a10.3,10.3,0,0,1-1.845.02" transform="translate(-8.416 -71.579)" fill="#cfd7d9"/>
    <path id="Path_12973" data-name="Path 12973" d="M44.345,98.777c2.607,0,2.59,0,2.427,2.607-.034.548-.241.7-.747.7-1.163-.021-2.328-.023-3.491,0-.524.01-.7-.179-.732-.712-.151-2.593-.166-2.592,2.544-2.592" transform="translate(-30.254 -71.583)" fill="#cfd7d9"/>
    <path id="Path_12974" data-name="Path 12974" d="M74.158,102.057c-2.609,0-2.592,0-2.431-2.6.033-.543.23-.711.743-.7q1.745.033,3.491,0c.519-.01.7.169.737.707.155,2.6.171,2.6-2.539,2.6" transform="translate(-51.937 -71.566)" fill="#cfd7d9"/>
    <path id="Path_12975" data-name="Path 12975" d="M104.178,98.777h.1c2.616,0,2.6,0,2.4,2.634-.037.474-.186.674-.67.667-1.2-.017-2.4-.024-3.594,0-.554.012-.676-.236-.7-.74-.133-2.565-.146-2.564,2.466-2.564" transform="translate(-73.677 -71.583)" fill="#cfd7d9"/>
    <path id="Path_12976" data-name="Path 12976" d="M104.078,191.88c-2.609,0-2.592,0-2.422-2.611.036-.551.249-.7.752-.692,1.163.02,2.328.023,3.491,0,.529-.011.7.189.727.717.148,2.588.163,2.587-2.548,2.587" transform="translate(-73.623 -136.659)" fill="#cfd7d9"/>
    <path id="Path_12977" data-name="Path 12977" d="M44.264,72.008c-2.609,0-2.594,0-2.451-2.58.029-.521.183-.735.72-.723a28.422,28.422,0,0,1,3.588.045c1.367.206.423,1.381.613,2.089.11.411.339,1.184-.621,1.17-.616-.009-1.232,0-1.848,0" transform="translate(-30.265 -49.761)" fill="#cfd7d9"/>
    <path id="Path_12978" data-name="Path 12978" d="M44.067,161.946h-.205c-2.43,0-2.635-.264-2.272-2.757.068-.468.3-.543.686-.541,1.2.006,2.4.013,3.594,0,.472-.007.713.164.672.654a.752.752,0,0,0,0,.1c.142,2.544.142,2.544-2.475,2.544" transform="translate(-30.038 -114.968)" fill="#cfd7d9"/>
    <path id="Path_12979" data-name="Path 12979" d="M44.225,191.881c-2.608,0-2.592,0-2.435-2.6.033-.539.222-.715.739-.7q1.745.033,3.491,0c.515-.01.708.162.741.7.159,2.6.175,2.6-2.536,2.6" transform="translate(-30.244 -136.661)" fill="#cfd7d9"/>
    <path id="Path_12980" data-name="Path 12980" d="M14.126,161.946H13.92c-2.43,0-2.635-.264-2.272-2.757.068-.468.3-.543.686-.541,1.2.006,2.4.013,3.594,0,.472-.007.713.164.672.654a.753.753,0,0,0,0,.1c.142,2.544.142,2.544-2.475,2.544" transform="translate(-8.34 -114.968)" fill="#cfd7d9"/>
    <path id="Path_12981" data-name="Path 12981" d="M103.925,72.122h-.205c-2.4,0-2.642-.313-2.256-2.77.062-.392.229-.528.594-.526,1.232,0,2.465.013,3.7,0,.483-.007.7.188.659.668a.711.711,0,0,0,0,.1c.13,2.531.13,2.531-2.489,2.531" transform="translate(-73.423 -49.874)" fill="#cfd7d9"/>
    <path id="Path_12982" data-name="Path 12982" d="M44.341,218.543c2.609,0,2.592,0,2.428,2.6-.034.545-.236.708-.746.7q-1.745-.032-3.491,0c-.522.01-.7-.175-.734-.71-.153-2.594-.168-2.594,2.542-2.594" transform="translate(-30.252 -158.377)" fill="#cfd7d9"/>
    <path id="Path_12983" data-name="Path 12983" d="M74.287,218.543c2.607,0,2.59,0,2.427,2.607-.034.548-.241.7-.747.7-1.163-.021-2.328-.023-3.491,0-.524.01-.7-.179-.732-.712-.151-2.593-.166-2.592,2.544-2.592" transform="translate(-51.953 -158.377)" fill="#cfd7d9"/>
    <path id="Path_12984" data-name="Path 12984" d="M104.005,221.836H103.8c-2.509,0-2.628-.154-2.3-2.726.056-.451.253-.576.657-.573,1.232.009,2.465.011,3.7,0,.442,0,.626.2.6.621a.854.854,0,0,0,0,.1c.166,2.575.166,2.575-2.444,2.575" transform="translate(-73.46 -158.372)" fill="#cfd7d9"/>
    <path id="Path_12985" data-name="Path 12985" d="M14.37,188.6c2.607,0,2.592,0,2.441,2.592-.031.534-.208.722-.732.712-1.163-.023-2.328-.021-3.491,0-.507.009-.713-.148-.747-.7-.164-2.608-.181-2.607,2.529-2.607" transform="translate(-8.538 -136.679)" fill="#cfd7d9"/>
    <path id="Path_12986" data-name="Path 12986" d="M104.1,161.946h-.1c-2.617,0-2.6,0-2.39-2.641.039-.478.2-.667.676-.66q1.8.026,3.594,0c.462-.006.725.141.684.642a.754.754,0,0,0,0,.1c.151,2.557.151,2.557-2.463,2.557" transform="translate(-73.569 -114.968)" fill="#cfd7d9"/>
    <path id="Path_12987" data-name="Path 12987" d="M74.158,161.94c-2.609,0-2.592,0-2.431-2.6.033-.543.23-.711.743-.7q1.745.033,3.491,0c.519-.01.7.169.737.707.155,2.6.171,2.6-2.539,2.6" transform="translate(-51.937 -114.963)" fill="#cfd7d9"/>
    <path id="Path_12988" data-name="Path 12988" d="M74.005,191.887H73.8c-2.424,0-2.636-.273-2.27-2.759.069-.47.307-.541.689-.539,1.2.006,2.4.013,3.594,0,.474-.007.71.168.67.657a.752.752,0,0,0,0,.1c.14,2.542.14,2.542-2.478,2.542" transform="translate(-51.735 -136.667)" fill="#cfd7d9"/>
    <path id="Path_12989" data-name="Path 12989" d="M104.1,132c-2.609,0-2.592,0-2.431-2.6.033-.543.23-.711.743-.7q1.745.033,3.491,0c.519-.01.7.169.737.707.155,2.6.171,2.6-2.539,2.6" transform="translate(-73.636 -93.264)" fill="#cfd7d9"/>
    <path id="Path_12990" data-name="Path 12990" d="M44.127,251.775h-.205c-2.514,0-2.628-.148-2.307-2.724.056-.45.251-.577.656-.574,1.232.009,2.465.012,3.7,0,.442,0,.628.191.6.619a.851.851,0,0,0,0,.1c.165,2.578.165,2.578-2.442,2.578" transform="translate(-30.064 -180.069)" fill="#cfd7d9"/>
    <path id="Path_12991" data-name="Path 12991" d="M73.97,251.776h-.1c-2.52,0-2.626-.138-2.308-2.722.055-.448.246-.58.653-.577,1.232.009,2.465.011,3.7,0,.439,0,.631.188.6.617a.8.8,0,0,0,0,.1c.169,2.579.169,2.579-2.543,2.579" transform="translate(-51.765 -180.069)" fill="#cfd7d9"/>
    <path id="Path_12992" data-name="Path 12992" d="M74.076,132.011h-.205c-2.525,0-2.625-.132-2.31-2.72.055-.447.243-.582.651-.579q1.848.014,3.7,0c.437,0,.633.184.605.615a.8.8,0,0,0,0,.1c.171,2.581.171,2.581-2.438,2.581" transform="translate(-51.767 -93.277)" fill="#cfd7d9"/>
    <path id="Path_12993" data-name="Path 12993" d="M44.345,128.719c2.607,0,2.59,0,2.427,2.607-.034.548-.241.7-.747.7-1.163-.021-2.328-.023-3.491,0-.524.01-.7-.179-.732-.712-.151-2.593-.166-2.592,2.544-2.592" transform="translate(-30.254 -93.282)" fill="#cfd7d9"/>
    <path id="Path_12994" data-name="Path 12994" d="M14.266,218.544c2.61,0,2.6,0,2.454,2.577-.028.518-.176.738-.717.727a28.846,28.846,0,0,1-3.588-.045c-1.37-.2-.426-1.379-.615-2.087-.11-.409-.344-1.185.617-1.173.616.008,1.232,0,1.848,0" transform="translate(-8.448 -158.377)" fill="#cfd7d9"/>
    <path id="Path_12995" data-name="Path 12995" d="M14.323,72.009c-2.61,0-2.6,0-2.452-2.579.029-.52.182-.736.719-.724a28.474,28.474,0,0,1,3.588.045c1.367.205.424,1.381.613,2.089.11.411.341,1.184-.62,1.17-.616-.009-1.232,0-1.848,0" transform="translate(-8.567 -49.761)" fill="#cfd7d9"/>
    <path id="Path_12996" data-name="Path 12996" d="M14.181,132.011h-.205c-2.509,0-2.628-.154-2.3-2.726.057-.451.253-.576.657-.573,1.232.009,2.465.011,3.7,0,.442,0,.626.2.6.621a.853.853,0,0,0,0,.1c.166,2.575.166,2.575-2.444,2.575" transform="translate(-8.364 -93.277)" fill="#cfd7d9"/>
    <path id="Path_12997" data-name="Path 12997" d="M74.258,68.836c2.607,0,2.591,0,2.438,2.594-.032.536-.214.72-.735.709q-1.745-.035-3.491,0c-.51.009-.711-.154-.745-.7-.163-2.605-.18-2.6,2.532-2.6" transform="translate(-51.936 -49.885)" fill="#cfd7d9"/>
    <path id="Path_12998" data-name="Path 12998" d="M134.057,72.112h-.1c-2.616,0-2.6,0-2.4-2.634.037-.474.186-.674.67-.667,1.2.017,2.4.024,3.594,0,.554-.012.676.236.7.74.133,2.565.146,2.564-2.466,2.564" transform="translate(-95.279 -49.864)" fill="#cfd7d9"/>
    <path id="Path_12999" data-name="Path 12999" d="M14.289,251.764c-2.607,0-2.591,0-2.436-2.6.032-.537.218-.717.737-.707q1.745.034,3.491,0c.512-.009.709.159.743.7.161,2.6.177,2.6-2.534,2.6" transform="translate(-8.548 -180.058)" fill="#cfd7d9"/>
    <path id="Path_13000" data-name="Path 13000" d="M133.424,98.789q-.026,1.642-.053,3.285a5.821,5.821,0,0,0-.71.007c-.715.092-1-.213-.909-.918a6.851,6.851,0,0,0,.005-.71c.038-1.822-.327-1.681,1.667-1.663" transform="translate(-95.468 -71.585)" fill="#cfd7d9"/>
    <path id="Path_13001" data-name="Path 13001" d="M133.405,188.608v3.29c-1.887-.012-1.608.2-1.608-1.645s-.279-1.634,1.608-1.645" transform="translate(-95.502 -136.681)" fill="#cfd7d9"/>
    <path id="Path_13002" data-name="Path 13002" d="M133.405,158.666v3.291c-1.886-.012-1.607.2-1.607-1.646s-.278-1.633,1.607-1.645" transform="translate(-95.503 -114.983)" fill="#cfd7d9"/>
    <path id="Path_13003" data-name="Path 13003" d="M133.405,128.724v3.291c-1.886-.012-1.607.2-1.607-1.646s-.278-1.633,1.607-1.646" transform="translate(-95.503 -93.284)" fill="#cfd7d9"/>
    <path id="Path_13004" data-name="Path 13004" d="M133.405,218.549v3.29c-1.887-.012-1.608.2-1.608-1.645s-.279-1.634,1.608-1.645" transform="translate(-95.502 -158.379)" fill="#cfd7d9"/>
    <path id="Path_13005" data-name="Path 13005" d="M104.738,248.632a6.284,6.284,0,0,0-2.868,1.662c0-1.871,0-1.876,1.91-1.851.324,0,.689-.127.958.189" transform="translate(-73.824 -180.028)" fill="#656b76"/>
    <path id="Path_13006" data-name="Path 13006" d="M220.513,241.239a2.483,2.483,0,0,1-2.448-1.42c-.768-1.348-1.667-2.621-2.51-3.927q.019-5.7.037-11.394h4.922q0,8.371,0,16.742" transform="translate(-156.211 -162.691)" fill="#167b4b"/>
    <path id="Path_13007" data-name="Path 13007" d="M190.435,231.743c-1.5-.777-3.126-.617-4.725-.677l.011-6.57h4.922q.006,3.2.01,6.4c0,.3.072.62-.217.845" transform="translate(-134.583 -162.691)" fill="#167b4b"/>
    <path id="Path_13008" data-name="Path 13008" d="M160.711,231.067h-4.943l.011-6.57H160.7l.011,6.57" transform="translate(-112.884 -162.691)" fill="#167b4b"/>
    <path id="Path_13009" data-name="Path 13009" d="M160.671,211.468h-4.922c0-1.366.012-2.732-.021-4.1-.015-.59.131-.877.792-.851,1.125.044,2.255.044,3.38,0,.662-.026.807.26.792.851-.034,1.365-.017,2.732-.021,4.1" transform="translate(-112.854 -149.662)" fill="#48ac7d"/>
    <path id="Path_13010" data-name="Path 13010" d="M250.5,211.468h-4.922c0-1.366.012-2.732-.021-4.1-.015-.59.131-.877.792-.851,1.125.044,2.254.044,3.38,0,.662-.026.807.26.792.851-.034,1.365-.017,2.732-.021,4.1" transform="translate(-177.95 -149.662)" fill="#48ac7d"/>
    <path id="Path_13011" data-name="Path 13011" d="M310.379,211.468h-4.922c0-1.366.012-2.732-.021-4.1-.015-.59.131-.877.792-.851,1.125.044,2.254.044,3.38,0,.662-.026.807.26.792.851-.034,1.365-.017,2.732-.021,4.1" transform="translate(-221.346 -149.662)" fill="#48ac7d"/>
    <path id="Path_13012" data-name="Path 13012" d="M190.613,211.468h-4.922c0-1.366.012-2.732-.021-4.1-.015-.59.131-.877.792-.851,1.125.044,2.254.044,3.38,0,.662-.026.807.26.792.851-.034,1.365-.017,2.732-.021,4.1" transform="translate(-134.553 -149.662)" fill="#48ac7d"/>
    <path id="Path_13013" data-name="Path 13013" d="M220.554,211.468h-4.922c0-1.366.012-2.732-.021-4.1-.015-.59.131-.877.792-.851,1.125.044,2.254.044,3.38,0,.662-.026.807.26.792.851-.034,1.365-.017,2.732-.021,4.1" transform="translate(-156.251 -149.662)" fill="#48ac7d"/>
    <path id="Path_13014" data-name="Path 13014" d="M280.437,211.468h-4.922c0-1.366.012-2.732-.021-4.1-.015-.59.131-.877.792-.851,1.125.044,2.254.044,3.38,0,.662-.026.807.26.792.851-.034,1.365-.017,2.732-.021,4.1" transform="translate(-199.648 -149.662)" fill="#48ac7d"/>
    <path id="Path_13015" data-name="Path 13015" d="M231.81,148.925h-.1c-1.506,0-2.046-.6-1.468-2.029.39-.965,1.5-.295,2.276-.423.342-.057.9-.214.944.44.037.51.009,1.024.008,1.537,0,.354-.213.472-.53.471H231.81v0" transform="translate(-166.688 -106.07)" fill="#167b4b"/>
    <path id="Path_13016" data-name="Path 13016" d="M160.391,161.654h.205c1.376,0,2.057.859,1.393,2.086-.477.88-1.607.234-2.432.374-.31.052-.746.1-.775-.41-.031-.545-.015-1.093,0-1.639.007-.3.212-.4.485-.4h1.128v-.007" transform="translate(-115.055 -117.15)" fill="#167b4b"/>
    <path id="Path_13017" data-name="Path 13017" d="M195.967,163.923h-.205c-1.359,0-1.9-.807-1.434-2.123.184-.52.629-.378.95-.332.766.111,1.743-.464,2.25.344.275.439.062,1.2.033,1.809-.012.254-.255.29-.466.294-.376.006-.752,0-1.128,0Z" transform="translate(-140.709 -116.946)" fill="#167b4b"/>
    <path id="Path_13018" data-name="Path 13018" d="M213.895,163.882h-.1c-1.535,0-2.013-.534-1.5-2.022.347-1,1.369-.295,2.071-.421.377-.068,1.04-.323,1.153.417a10.452,10.452,0,0,1,.018,1.535c0,.347-.191.486-.516.485-.376,0-.752,0-1.128,0Z" transform="translate(-153.705 -116.904)" fill="#167b4b"/>
    <path id="Path_13019" data-name="Path 13019" d="M231.767,163.9h-.1c-1.433,0-2.02-.72-1.437-2.068.387-.894,1.4-.271,2.114-.378.363-.054.983-.3,1.1.371a9.01,9.01,0,0,1,.019,1.636c-.006.364-.261.436-.562.436h-1.128" transform="translate(-166.683 -116.923)" fill="#167b4b"/>
    <path id="Path_13020" data-name="Path 13020" d="M159.95,178.867h-.1c-1.506,0-2.046-.6-1.468-2.029.39-.965,1.5-.295,2.276-.423.342-.057.9-.214.944.44.037.51.009,1.024.008,1.537,0,.353-.213.472-.53.471H159.95Z" transform="translate(-114.612 -127.768)" fill="#167b4b"/>
    <path id="Path_13021" data-name="Path 13021" d="M177.969,178.9h-.1c-1.452,0-1.905-.636-1.487-2.077.19-.655.751-.423,1.113-.37.719.106,1.65-.489,2.116.38.228.425.048,1.072.042,1.619,0,.362-.25.445-.554.445h-1.128Z" transform="translate(-127.713 -127.802)" fill="#167b4b"/>
    <path id="Path_13022" data-name="Path 13022" d="M195.931,178.9h-.1c-1.448,0-1.906-.643-1.485-2.078.192-.653.752-.422,1.115-.368.718.107,1.65-.491,2.115.382.227.426.048,1.072.041,1.619,0,.362-.252.443-.556.443h-1.128" transform="translate(-140.731 -127.801)" fill="#167b4b"/>
    <path id="Path_13023" data-name="Path 13023" d="M214.081,179.1c-.273,0-.548-.016-.82,0-.5.035-.72-.137-.751-.688-.1-1.789-.124-1.788,1.7-1.788h.1c1.465,0,1.9.61,1.5,2.072a.46.46,0,0,1-.5.394c-.41,0-.82,0-1.23,0Z" transform="translate(-153.978 -127.999)" fill="#167b4b"/>
    <path id="Path_13024" data-name="Path 13024" d="M231.825,178.852h-.205c-1.4,0-2.043-.8-1.414-2.079.452-.919,1.54-.228,2.328-.375.316-.059.831-.188.884.391a15.207,15.207,0,0,1,.008,1.639c-.005.3-.2.415-.474.415-.376,0-.752,0-1.128,0v.008" transform="translate(-166.653 -127.753)" fill="#167b4b"/>
    <path id="Path_13025" data-name="Path 13025" d="M178.105,161.627c.273,0,.549.02.82-.005.584-.055.753.207.769.774.05,1.7.073,1.7-1.579,1.7h-.2c-1.5,0-1.9-.551-1.522-2.053.088-.354.3-.417.589-.417h1.128" transform="translate(-127.732 -117.121)" fill="#167b4b"/>
    <path id="Path_13026" data-name="Path 13026" d="M178.259,146.685h.1c1.448,0,1.906.643,1.485,2.078-.192.653-.752.422-1.115.368-.718-.107-1.65.491-2.115-.382-.227-.426-.047-1.072-.041-1.619,0-.362.252-.443.556-.443h1.128" transform="translate(-127.91 -106.301)" fill="#167b4b"/>
    <path id="Path_13027" data-name="Path 13027" d="M160.2,131.713h.205c1.373,0,1.91.786,1.436,2.113-.041.116-.148.295-.228.3-.919.024-1.84.044-2.759.01-.305-.011-.261-.343-.285-.576-.183-1.8-.141-1.844,1.63-1.844" transform="translate(-114.864 -95.452)" fill="#167b4b"/>
    <path id="Path_13028" data-name="Path 13028" d="M177.885,133.949h-.1c-1.482,0-2.057-.648-1.452-2.039.427-.981,1.579-.251,2.388-.417.33-.068.812-.134.833.456.018.512.006,1.025,0,1.537,0,.357-.23.459-.541.459h-1.128Z" transform="translate(-127.613 -95.215)" fill="#167b4b"/>
    <path id="Path_13029" data-name="Path 13029" d="M195.931,133.986h-.1c-1.448,0-1.906-.643-1.485-2.078.192-.653.752-.422,1.115-.368.718.107,1.65-.491,2.115.382.227.426.047,1.072.041,1.619,0,.362-.252.443-.556.443h-1.128" transform="translate(-140.731 -95.254)" fill="#167b4b"/>
    <path id="Path_13030" data-name="Path 13030" d="M214.081,134.185c-.273,0-.548-.016-.82,0-.5.035-.72-.137-.751-.688-.1-1.789-.124-1.788,1.7-1.788h.1c1.465,0,1.9.61,1.5,2.072a.459.459,0,0,1-.5.394c-.41,0-.82,0-1.23,0v.006" transform="translate(-153.978 -95.452)" fill="#167b4b"/>
    <path id="Path_13031" data-name="Path 13031" d="M231.785,133.949h-.1c-1.488,0-2.057-.639-1.455-2.036.424-.985,1.578-.253,2.385-.42.329-.068.813-.136.835.453.02.512.007,1.025,0,1.537,0,.356-.226.462-.538.462h-1.128Z" transform="translate(-166.673 -95.215)" fill="#167b4b"/>
    <path id="Path_13032" data-name="Path 13032" d="M160.427,146.684h.1c1.5,0,2.046.62,1.462,2.035-.4.958-1.5.29-2.281.418-.343.057-.9.21-.939-.446-.034-.51-.009-1.024-.006-1.537,0-.355.22-.466.535-.466h1.128Z" transform="translate(-115.048 -106.301)" fill="#167b4b"/>
    <path id="Path_13033" data-name="Path 13033" d="M195.821,148.91h-.1c-1.423,0-2.03-.744-1.43-2.071.417-.921,1.466-.251,2.218-.379.335-.057.91-.247.993.378a10.974,10.974,0,0,1,.014,1.638c-.007.366-.267.432-.566.432h-1.128" transform="translate(-140.633 -106.055)" fill="#167b4b"/>
    <path id="Path_13034" data-name="Path 13034" d="M214.19,146.685h.1c1.448,0,1.906.643,1.485,2.078-.192.653-.752.422-1.115.368-.718-.107-1.65.491-2.115-.382-.227-.426-.048-1.072-.041-1.619,0-.362.252-.443.556-.443h1.128" transform="translate(-153.949 -106.301)" fill="#167b4b"/>
    <path id="Path_13035" data-name="Path 13035" d="M90.32,268.468c1.748-2.189,3.576-4.3,5.194-6.569a3.552,3.552,0,0,1,3.469-1.562c2.26.107,4.529.044,6.794.018.622-.007.939.109.926.837-.04,2.2-.023,4.393-.009,6.589,0,.513-.064.839-.711.836-5.148-.02-10.3-.014-15.444-.02-.053,0-.1-.06-.22-.129" transform="translate(-65.454 -188.658)" fill="#656b76"/>
    <path id="Path_13036" data-name="Path 13036" d="M176.55,268.673c-4.833,0-9.491,0-14.149.005-.478,0-.674-.176-.671-.662.012-2.3.017-4.593,0-6.889,0-.551.228-.7.739-.7,2.845.014,5.69.02,8.535-.006.558,0,.785.318,1.018.706l4.531,7.547" transform="translate(-117.202 -188.724)" fill="#656b76"/>
    <path id="Path_13037" data-name="Path 13037" d="M91.666,299.365c.654.048,1.573-.206,1.6.787.029,1.084-.929.855-1.608.859-.65,0-1.564.218-1.592-.773-.031-1.088.933-.819,1.6-.873" transform="translate(-65.269 -216.948)" fill="#656b76"/>
    <path id="Path_13038" data-name="Path 13038" d="M163.512,299.375h.2c.63-.012,1.357-.045,1.365.816s-.712.846-1.347.834c-.307-.006-.613,0-.92,0-.552,0-.96-.233-.966-.814s.394-.826.948-.832c.238,0,.477,0,.716,0" transform="translate(-117.29 -216.951)" fill="#656b76"/>
    <path id="Path_13039" data-name="Path 13039" d="M230.182,326.335a2.473,2.473,0,1,1-2.554,2.414,2.581,2.581,0,0,1,2.554-2.414" transform="translate(-164.96 -236.491)" fill="#cfd7d9"/>
    <path id="Path_13040" data-name="Path 13040" d="M94.84,328.775a2.471,2.471,0,1,1-2.53-2.438,2.583,2.583,0,0,1,2.53,2.438" transform="translate(-65.148 -236.494)" fill="#cfd7d9"/>
  </g>
</svg>
