<svg xmlns="http://www.w3.org/2000/svg" xmlns:xlink="http://www.w3.org/1999/xlink" width="128.353" height="128.112" viewBox="0 0 128.353 128.112">
  <defs>
    <linearGradient id="linear-gradient" x1="-0.002" y1="0.5" x2="1" y2="0.5" gradientUnits="objectBoundingBox">
      <stop offset="0" stop-color="#e5c171"/>
      <stop offset="1" stop-color="#d7a841"/>
    </linearGradient>
    <linearGradient id="linear-gradient-2" x1="0" y1="0.506" x2="0.998" y2="0.506" xlink:href="#linear-gradient"/>
    <clipPath id="clip-path">
      <path id="Path_13623" data-name="Path 13623" d="M5772.146,11321.675l-26.851,15.46a67.791,67.791,0,0,0,4.022,18.055,57.7,57.7,0,0,0,9.41,14.987l27.018-18.712,14.767-11.784-5.557-14.466-9.21-6.035Z" transform="translate(-4576 -10508)" fill="none" stroke="#707070" stroke-width="1"/>
    </clipPath>
  </defs>
  <g id="Group_1872" data-name="Group 1872" transform="translate(-1169.295 -764.831)">
    <path id="Path_13393" data-name="Path 13393" d="M65.221,81.668q1.228,14.212,2.807,28.425c-9.826.7-19.652,1.521-29.594,2.339C36.211,102.021,34.106,91.728,32,81.2,43.113,81.434,54.225,81.551,65.221,81.668Z" transform="translate(1173.901 711.115)" fill="#896316"/>
    <path id="Path_13400" data-name="Path 13400" d="M109.138,106.221c-7.018-2.924-14.037-1.17-20.938,1.287C96.856,113.942,101.535,114.761,109.138,106.221Z" transform="translate(1183.44 715.104)" fill="#818496"/>
    <path id="Path_13401" data-name="Path 13401" d="M52.584,111.687c2.924-4.328,8.188-5.615,12.4-3.041,10.294,5.966,23.278,19.769,34.156,21.991,3.509-9.475-1.638-20.353-2.573-29.711-.351-3.158,1.638-5.381,4.679-6.2,3.509-.819,5.381,1.287,6.9,4.679,5.03,10.762,6.9,33.922,4.328,41.76-2.573,7.72,1.17-2.222-.819,2.106s-5.381,7.369-12.165,5.5c-.234-.117,5.381,1.872-2.456-.819S66.5,131.456,55.859,124.086C52.233,121.4,49.66,116.015,52.584,111.687Z" transform="translate(1177.18 713.381)" fill="#f69d85"/>
    <path id="Path_13402" data-name="Path 13402" d="M39.6,86.685c.234,7.837.585,15.675.936,23.512,4.913-.234,9.826-.468,14.622-.7-.468-7.837-.819-15.558-1.053-23.395C49.309,86.334,44.4,86.568,39.6,86.685Z" transform="translate(1175.191 711.947)" fill="#f69d85"/>
    <path id="Path_13403" data-name="Path 13403" d="M52.7,101.707c29.244-1.053,26.553,15.791,43.982,25.734,1.17-6.551-.936-13.1-2.456-19.418,7.252,2.456,13.92.819,20.938-1.17,8.422,13.92,6.551,36.5-7.135,44.216-16.61,9.358-29.945.351-43.046-7.954C61.356,128.728,57.145,115.51,52.7,101.707Z" transform="translate(1177.415 714.588)" fill="#f1f3f2"/>
    <path id="Path_13404" data-name="Path 13404" d="M42.3,96.973c3.86,1.521,7.837,2.573,12.048,1.989-.117-1.521-.117-3.041-.234-4.562C50.137,95.336,46.16,96.155,42.3,96.973Z" transform="translate(1175.649 713.355)" fill="#d1836b"/>
    <path id="Path_13405" data-name="Path 13405" d="M51.5,103.209h0c6.434-1.872,15.675-9.943,13.452-18.014-.468-1.872-.468-6.083-1.053-7.954-2.223-8.422-8.071-14.388-17.2-13.218h0c-9.241,1.17-13.335,9.241-13.1,17.9,0,2.106.936,5.966,1.053,7.954C35.122,98.881,45.065,105.081,51.5,103.209Z" transform="translate(1174.171 708.173)" fill="#f69d85"/>
    <path id="Path_13406" data-name="Path 13406" d="M36.307,83.871a29.866,29.866,0,0,0-2.807-4.8c.819,8.539.234,15.908,9.592,21.172,6.434,3.509,18.6.117,20.938-8.422,1.638-5.966.819-10.411-.234-16.025-.468,1.989-.819,3.743-1.17,5.732-.351,2.106-.234,4.445-1.053,6.434A15.09,15.09,0,0,0,59.7,86.913a6.962,6.962,0,0,0-4.328-.468h0a20.8,20.8,0,0,1-8.071.117,4.736,4.736,0,0,0-1.872-.117A5.951,5.951,0,0,0,42.39,87.5c-.7.468-1.638,1.17-2.339,1.755C38.062,88.433,37.36,86.094,36.307,83.871ZM44.73,88.2c.468-.585,1.17-.351,1.521-.351a27.056,27.056,0,0,0,9.241-.117c1.755-.351,1.872.234,2.573,1.17.234.234.234.351.117.936-.7,3.275-3.743,4.211-6.9,4.562-3.041.351-7.135-1.638-7.6-4.445C43.326,88.55,44.262,88.784,44.73,88.2Z" transform="translate(1174.156 710.199)" fill="#2e3439"/>
    <path id="Path_13408" data-name="Path 13408" d="M45.213,80.173c.117.7.117,2.106-.819,2.223s-1.17-1.287-1.287-1.872c-.117-.7-.117-2.106.819-2.223S45.1,79.471,45.213,80.173Z" transform="translate(1175.777 710.622)" fill="#2e3439"/>
    <path id="Path_13409" data-name="Path 13409" d="M53.013,78.873c.117.7.117,2.106-.819,2.223s-1.17-1.287-1.287-1.872c-.117-.7-.117-2.106.819-2.223S52.9,78.288,53.013,78.873Z" transform="translate(1177.102 710.401)" fill="#2e3439"/>
    <path id="Path_13410" data-name="Path 13410" d="M39.8,84.521a1.474,1.474,0,0,0,1.521,1.521,1.572,1.572,0,0,0,1.638-1.521A1.474,1.474,0,0,0,41.438,83,1.507,1.507,0,0,0,39.8,84.521Z" transform="translate(1175.225 711.421)" fill="#e58a76"/>
    <path id="Path_13411" data-name="Path 13411" d="M54.5,82.821a1.474,1.474,0,0,0,1.521,1.521,1.572,1.572,0,0,0,1.638-1.521A1.474,1.474,0,0,0,56.138,81.3,1.507,1.507,0,0,0,54.5,82.821Z" transform="translate(1177.72 711.133)" fill="#e58a76"/>
    <path id="Path_13412" data-name="Path 13412" d="M48.923,86.085h0c.819-.468,1.872-.819,1.755-1.989a26.324,26.324,0,0,0-2.106-4.445c-.351-.7-.234-.117-.351-.234-.234-.117-.117.234-.117.351a25.473,25.473,0,0,1,2.106,4.445c.234,1.17-.936.936-1.4,1.521-.117.117-.234.117-.117.351Z" transform="translate(1176.63 710.793)" fill="#bc6b55"/>
    <path id="Path_13413" data-name="Path 13413" d="M45.658,89a3.575,3.575,0,0,0,1.4,1.17,5.979,5.979,0,0,0,5.264-.468,3.97,3.97,0,0,0,.7-.7,1.556,1.556,0,0,0,.351-.936h0c0-.351.117-.936-.468-1.053-1.287-.234-3.158.468-4.328.234-1.17-.117-2.339-.585-3.158.234-.117.117,0,.117-.117.234,0,.117-.117.117,0,.351A4.815,4.815,0,0,0,45.658,89Z" transform="translate(1176.151 712.093)" fill="#d1836b"/>
    <path id="Path_13414" data-name="Path 13414" d="M55.015,76.326c.234.117.351.117.234-.117,0-.234.7,0-.234-.585s-3.86-1.4-5.381-.351a.608.608,0,0,0-.234.468c.117.234.468.234.468.234,1.287-.936,3.86-.234,4.562.351C55.366,76.56,54.781,76.209,55.015,76.326Z" transform="translate(1176.854 710.023)" fill="#bc6b55"/>
    <path id="Path_13415" data-name="Path 13415" d="M41.054,77.74c.117,0,.234,0,.234-.117.936-1.4,3.977-1.755,4.913-1.4.936.234.585,0,.585-.117,0-.234.7-.234-.351-.585s-4.445,0-5.615,1.638c-.117.117-.234.351,0,.468C40.937,77.74,40.937,77.74,41.054,77.74Z" transform="translate(1175.375 710.13)" fill="#bc6b55"/>
    <path id="Path_13416" data-name="Path 13416" d="M45.3,87.709a1.287,1.287,0,0,0,.351.7c1.755.7,5.966.351,7.135-.117s.234-.117.468-.234h0c0-.468.117-.936-.468-1.053-1.287-.234-3.158.468-4.328.234-1.17-.117-2.339-.585-3.158.234C45.3,87.592,45.3,87.592,45.3,87.709Z" transform="translate(1176.159 712.093)" fill="#fff"/>
    <path id="Path_13417" data-name="Path 13417" d="M48.616,87.048a8.671,8.671,0,0,0,2.456-.117,3.841,3.841,0,0,1,1.989-.117h0a1,1,0,0,1,.585,1.287,1.742,1.742,0,0,1-.468,1.053,2.381,2.381,0,0,1-.7.819,6.523,6.523,0,0,1-5.5.468,3.415,3.415,0,0,1-1.521-1.287,1.18,1.18,0,0,1-.351-.936c-.117-.351,0-.468.117-.819a.823.823,0,0,1,.585-.468A4.644,4.644,0,0,1,48.616,87.048ZM52.359,89.5c.234-.234.468-.351.585-.7a2.233,2.233,0,0,0,.351-.936c0-.351,0-.585-.351-.819h0a4.134,4.134,0,0,0-1.638.117,10.159,10.159,0,0,1-2.69.117c-.936-.117-2.223-.585-2.924.117-.117.117-.117.234,0,.468,0,.234,0,.351.351.7a3.693,3.693,0,0,0,1.4,1.17,6.489,6.489,0,0,0,4.211,0C51.892,89.856,52.125,89.739,52.359,89.5Z" transform="translate(1176.118 712.052)" fill="#bc6b55"/>
    <path id="Path_13418" data-name="Path 13418" d="M44.439,102.285c4.913,2.223,11,4.445,14.622-.585C69,104.156,75.2,111.292,79.882,120.065c1.053-1.638,2.573.234,3.392-3.509,8.071,42.111,1.409-18.115,7.141,31.95,1.614,13.64.97,16.966,1.84,25.379-20.693,7.883-35.959,4.27-52.009-2.684-3.907-1.693-16.144-9.169-19.712-13.455C18.012,155.871,21.629,108.368,44.439,102.285Z" transform="translate(1171.054 714.595)" fill="#f1f3f2"/>
    <g id="Group_1839" data-name="Group 1839" transform="translate(1273.234 793.134)">
      <g id="Group_1838" data-name="Group 1838">
        <path id="Path_13419" data-name="Path 13419" d="M91.815,106.214A13.949,13.949,0,0,1,92.4,95.569c1.521-2.924,3.275-6.9,6.668-6.668,3.392.351,2.69,9.358,1.287,12.4C99.067,104.225,96.026,107.383,91.815,106.214Z" transform="translate(-89.314 -80.713)" fill="#f69d85"/>
        <path id="Path_13420" data-name="Path 13420" d="M94.041,95a28.14,28.14,0,0,0,2.573-8.773c.234-1.638-.585-3.626,1.287-4.328,3.743,2.69,1.638,11,.585,14.739C96.263,101.786,90.882,99.563,94.041,95Z" transform="translate(-88.967 -81.9)" fill="#f69d85"/>
        <path id="Path_13421" data-name="Path 13421" d="M95.945,95.182a23.42,23.42,0,0,0,3.626-8.188c.351-1.521-.234-3.626,1.638-4.094,2.223,1.053,1.4,5.147,1.17,7.018a22.205,22.205,0,0,1-1.755,6.2,10.2,10.2,0,0,1-1.989,3.509C94.424,103.253,91.149,97.639,95.945,95.182Z" transform="translate(-88.882 -81.73)" fill="#f69d85"/>
        <path id="Path_13422" data-name="Path 13422" d="M96.3,99.82a31.562,31.562,0,0,0,6.317-14.271,1.238,1.238,0,0,1,2.456.234,10.275,10.275,0,0,1-.117,3.275c-.819,4.8-2.223,9.709-5.03,13.686C97.82,105.435,94.076,102.628,96.3,99.82Z" transform="translate(-88.535 -81.455)" fill="#f69d85"/>
        <path id="Path_13423" data-name="Path 13423" d="M92.249,96.252a26.125,26.125,0,0,0,1.638-9.007c.117-1.638-1.053-3.626.819-4.445,3.392.819,2.924,8.89,2.573,11C96.109,103.387,90.494,101.048,92.249,96.252Z" transform="translate(-89.164 -81.747)" fill="#f69d85"/>
        <path id="Path_13424" data-name="Path 13424" d="M96.151,91.168h-.117c-.117,0-.234-.234-.234-.351a26.8,26.8,0,0,0,.234-5.147c-.117-.819.117-.351.234-.351s.234-.468.234.351a20.7,20.7,0,0,1-.234,5.264A.408.408,0,0,1,96.151,91.168Z" transform="translate(-88.504 -81.342)" fill="#bc6b55"/>
        <path id="Path_13425" data-name="Path 13425" d="M98.151,91.283h-.234c-.117,0-.117-.234-.117-.351a17.356,17.356,0,0,0,.7-4.562c0-.7.117-.351.234-.351s.234-.468.234.351a14.1,14.1,0,0,1-.819,4.679C98.268,91.166,98.268,91.283,98.151,91.283Z" transform="translate(-88.164 -81.223)" fill="#bc6b55"/>
        <path id="Path_13426" data-name="Path 13426" d="M99.947,92.383h-.234a.219.219,0,0,1,0-.351c.936-.936,1.521-3.86,1.638-4.562.117-.819.117-.351.234-.351s.234-.468.234.351a10.783,10.783,0,0,1-1.872,4.913Z" transform="translate(-87.854 -81.037)" fill="#bc6b55"/>
        <path id="Path_13427" data-name="Path 13427" d="M97.605,95.748h0a7.881,7.881,0,0,0-2.223,1.17c-.351.234-.117,0-.234.117a.115.115,0,0,1-.117-.117,5.672,5.672,0,0,0-1.4-2.339c-.351-.351-.117-.234-.117-.351.117-.117,0-.351.351,0a6.565,6.565,0,0,1,1.4,2.339,8.857,8.857,0,0,1,2.106-1.053.252.252,0,0,1,.234.234C97.722,95.514,97.722,95.631,97.605,95.748Z" transform="translate(-88.905 -79.839)" fill="#bc6b55"/>
        <path id="Path_13428" data-name="Path 13428" d="M90.893,105c-1.638-3.743-1.521-8.071-.936-12.282a9.744,9.744,0,0,1,.468-1.755c.7-1.638,2.69-1.4,2.69.468,0,.234-.117.936-.117,1.17a24.665,24.665,0,0,0,1.989,10.879C96.625,106.75,92.531,108.388,90.893,105Z" transform="translate(-89.562 -80.548)" fill="#f69d85"/>
      </g>
    </g>
    <path id="Path_13440" data-name="Path 13440" d="M30.73,77.7C33.186,52.786,67.46,48.809,69.1,79.223c.468,9.475,1.053,13.218,3.509,21.757A55.79,55.79,0,0,1,74.6,111.858a32.68,32.68,0,0,0-6.784-2.106c-1.053-8.656-1.989-17.312-2.339-26.085-.117-3.041-.468-6.083-.7-9.124C54.008,68.11,45.586,69.865,35.994,77.7a140.5,140.5,0,0,0,.819,18.6c.585,5.966,10.411,20.353,3.626,23.395-6.083,2.807-5.5-11.113-14.739-9.007C29.092,97,29.209,93.61,30.73,77.7Z" transform="translate(1172.832 707.127)" fill="url(#linear-gradient)"/>
    <path id="Path_13441" data-name="Path 13441" d="M47.8,111.009a2.555,2.555,0,0,1,2.456-2.807,2.659,2.659,0,0,1,2.924,2.456,2.555,2.555,0,0,1-2.456,2.807A2.659,2.659,0,0,1,47.8,111.009Zm.468-.117a2.292,2.292,0,0,0,2.339,1.989,2.031,2.031,0,0,0,1.989-2.223,2.292,2.292,0,0,0-2.339-1.989A2.1,2.1,0,0,0,48.269,110.892Z" transform="translate(1176.582 715.697)" fill="#818496"/>
    <path id="Path_13442" data-name="Path 13442" d="M48.7,118.309a2.555,2.555,0,0,1,2.456-2.807,2.659,2.659,0,0,1,2.924,2.456,2.726,2.726,0,0,1-2.456,2.924A2.833,2.833,0,0,1,48.7,118.309Zm.585,0a2.292,2.292,0,0,0,2.339,1.989,2.134,2.134,0,0,0,1.989-2.339,2.292,2.292,0,0,0-2.339-1.989A2.122,2.122,0,0,0,49.286,118.309Z" transform="translate(1176.734 716.937)" fill="#818496"/>
    <path id="Path_13443" data-name="Path 13443" d="M111.025,110.331c.234-.117.7-.585,0-.351-.819.234,2.223-1.521-1.053.234s-15.207,3.86-20.7.234a.7.7,0,0,0-.468.117c0,.117.117.234.234.351,3.86,2.223,11.58,2.456,14.739,1.872a22.148,22.148,0,0,0,7.018-2.456C112.078,109.864,110.791,110.448,111.025,110.331Z" transform="translate(1183.542 715.906)" fill="#818496"/>
    <path id="Path_13444" data-name="Path 13444" d="M78.835,150.718c.351,1.17.117.351.117.351-.585-3.041,1.287,4.562-.117-1.872-1.4-6.317-4.8-26.67-10.177-34.858,0-.117-.234-.351-.351-.234s0,.468,0,.585c5.264,7.837,8.773,28.893,10.06,34.624C79.537,154.929,78.484,149.548,78.835,150.718Z" transform="translate(1180.055 716.695)" fill="#818496"/>
    <path id="Path_13445" data-name="Path 13445" d="M18.18,139.7c.819-.468-3.041,1.872,1.053-.585s17.9-13.335,20.587-20.938c0-.117.117-.351,0-.468s-.468.117-.468.234c-2.69,7.486-16.376,18.248-20.47,20.7s-.351.351-.936.936C17.244,140.164,17.361,140.164,18.18,139.7Z" transform="translate(1171.345 717.307)" fill="#818496"/>
    <path id="Path_13448" data-name="Path 13448" d="M64.7,77.713c-3.626-.468-4.328-1.4-7.837-3.86-3.86-2.573-9.007-2.339-13.218,1.4-3.158,2.807-6.2,5.381-10.645,4.328,0-2.223.117-4.445.117-6.668C38.5,70.811,43.762,68.706,49.142,66.6c5.615,1.287,11.113,2.573,16.727,3.86C65.519,73.034,64.934,75.256,64.7,77.713Z" transform="translate(1174.071 708.637)" fill="url(#linear-gradient-2)"/>
    <path id="Path_13449" data-name="Path 13449" d="M30.354,74.355c.234,0,.585,0,.585-.117,5.5-4.562,19.769-5.732,24.214-5.732,4.913,0,11.113,2.573,11.346,2.573,2.106.7,2.106.351,2.106-.234,0-.7,1.755-.585-1.17-1.638A40.318,40.318,0,0,0,55.5,66.4c-5.147-.117-19.535,1.17-25.617,5.966-.351.234-.819.936-.468,1.4A1.072,1.072,0,0,0,30.354,74.355Z" transform="translate(1173.442 708.603)" fill="#2e3439"/>
    <path id="Path_13450" data-name="Path 13450" d="M31.168,71.223c.117,0,.468,0,.585-.117,5.5-3.977,19.3-4.913,23.512-4.913,4.562,0,10.06,2.223,10.294,2.339,1.989.7,1.989.351,1.989-.234s1.521-.585-1.053-1.638A31.758,31.758,0,0,0,55.616,64.2c-4.913-.234-18.95.936-24.915,5.03-.351.234-.936.936-.585,1.4A1.12,1.12,0,0,0,31.168,71.223Z" transform="translate(1173.563 708.226)" fill="#2e3439"/>
    <g id="Mask_Group_2" data-name="Mask Group 2" clip-path="url(#clip-path)">
      <path id="Path_13439" data-name="Path 13439" d="M51.318,102.117c-11.113-.117-15.441-.936-27.372,4.211-11.23,4.913-47.141,21.523-47.842,37.2-.819,16.961,19.418,30.179,30.764,39.654,3.275-7.018,8.773-10.645,16.025-12.75-4.562-6.434-9.241-12.867-13.92-19.3,10.645-5.966,24.448-12.75,32.519-21.172S49.446,112.645,51.318,102.117Z" transform="translate(1164.409 714.646)" fill="#f1f3f2"/>
    </g>
    <g id="Group_1871" data-name="Group 1871" transform="translate(1974.417 -563.822) rotate(92)">
      <path id="Path_12930" data-name="Path 12930" d="M235.836,111.455c3.033,2.611,2.6,5.3.046,7.626s-4.907,4.863-7.353,7.3c-2.042,2.037-4.33,2.049-6.353.032q-3.55-3.541-7.09-7.091a4.05,4.05,0,0,1,.023-6.23q3.956-3.969,7.925-7.925c2.121-2.121,4.349-2.135,6.472-.043.2.2.407.387.61.58,1.817,2,3.755,3.889,5.719,5.747M225.456,123a1.886,1.886,0,0,0,1.7-1.169,1.943,1.943,0,0,0-.451-2.314c-1.536-1.557-3.075-3.112-4.643-4.636a1.982,1.982,0,0,0-2.925-.016,2,2,0,0,0,.08,2.865c1.531,1.562,3.09,3.1,4.635,4.646a2.107,2.107,0,0,0,1.606.624m7.509-7.724a1.35,1.35,0,1,0,1.372-1.282,1.315,1.315,0,0,0-1.372,1.282m0,2.742a1.348,1.348,0,1,0-1.284,1.37,1.307,1.307,0,0,0,1.284-1.37" transform="translate(1154.331 538.562)" fill="#0d683d"/>
      <path id="Path_12932" data-name="Path 12932" d="M292.512,79.426c-1.965-1.858-3.9-3.743-5.719-5.747q5.43-5.417,10.851-10.843a1.818,1.818,0,0,1,1.472-.608c1.376.044,2.754.034,4.13,0,.53-.012.744.114.729.693-.039,1.488-.046,2.979,0,4.467.02.615-.412.867-.7,1.263a2.017,2.017,0,0,1-2.85.718c-1.167-.551-1.329-.43-1.192.9a4.484,4.484,0,0,1-1.7,4.166c-1.772,1.551-3.356,3.315-5.021,4.987" transform="translate(1097.654 570.59)" fill="#89898a"/>
      <path id="Path_12946" data-name="Path 12946" d="M299.434,151.113a1.349,1.349,0,1,1,1.24,1.413,1.311,1.311,0,0,1-1.24-1.413" transform="translate(1087.862 502.72)" fill="#e2b13c"/>
      <path id="Path_12947" data-name="Path 12947" d="M290.157,163.134a1.348,1.348,0,1,1-1.328-1.325,1.311,1.311,0,0,1,1.328,1.325" transform="translate(1097.137 493.44)" fill="#e2b13c"/>
    </g>
  </g>
</svg>
